<svg version="1.1" xmlns="http://www.w3.org/2000/svg" x="0px" y="0px" width="128" height="128" viewBox="0 0 128 128" enable-background="new 0 0 128 128" xml:space="preserve">
<g transform="translate(0.000000,128.000000) scale(0.100000,-0.100000)" stroke="none">
<path fill="#AAAAAA" d="M450 1263 c-14 -10 -34 -27 -46 -38 -11 -11 -72 -67 -134 -125 -287
-264 -272 -243 -244 -360 20 -86 84 -369 90 -398 15 -75 36 -139 52 -154 18
-18 550 -188 587 -188 30 1 56 18 132 90 38 36 122 115 187 175 180 167 185
172 192 199 3 14 -13 108 -41 228 -25 112 -54 239 -63 282 -12 57 -24 87 -42
104 -19 18 -98 47 -315 113 -159 49 -299 89 -310 89 -11 0 -32 -8 -45 -17z
m146 -199 c49 -53 90 -104 92 -113 2 -12 -38 -55 -115 -127 -64 -60 -142 -133
-173 -161 -30 -29 -62 -53 -70 -53 -14 0 -153 142 -189 193 -16 22 -23 15 238
255 94 88 111 102 122 102 4 0 46 -43 95 -96z m104 50 c287 -89 283 -87 263
-95 -11 -4 -66 -18 -122 -30 l-102 -23 -62 64 c-91 95 -112 120 -101 120 4 0
60 -16 124 -36z m354 -142 c3 -10 19 -80 37 -157 17 -77 39 -176 49 -220 22
-95 21 -97 -70 -118 -140 -34 -190 -41 -201 -30 -5 5 -16 39 -24 74 -7 35 -28
127 -46 204 -18 77 -33 156 -33 175 l-1 34 130 32 c72 17 135 29 142 26 7 -2
14 -11 17 -20z m-322 -113 c5 -19 13 -54 18 -79 6 -25 12 -54 14 -65 2 -11 9
-38 14 -60 6 -22 13 -51 16 -65 5 -25 10 -51 22 -102 3 -15 3 -32 0 -37 -3 -5
-48 4 -103 21 -206 63 -229 70 -280 85 -29 9 -53 21 -53 28 0 6 42 50 93 97
50 47 124 115 162 151 39 36 74 65 80 63 5 -1 13 -18 17 -37z m-433 -304 c0
-33 -66 -229 -72 -218 -3 5 -8 23 -11 39 -5 28 -71 319 -82 359 -3 11 33 -20
80 -70 52 -54 86 -98 85 -110z m151 -39 c41 -13 136 -43 210 -66 74 -23 141
-43 148 -45 6 -3 12 -13 12 -23 0 -31 -68 -245 -82 -258 -20 -18 -471 124
-476 150 -4 16 43 180 68 244 12 28 28 28 120 -2z m600 -129 c-181 -172 -245
-228 -247 -220 -5 13 55 203 68 219 6 7 36 18 67 25 31 7 80 18 107 25 28 7
55 13 60 13 6 0 -19 -28 -55 -62z"/>
</g>
</svg>
